<svg xmlns="http://www.w3.org/2000/svg" viewBox="0 0 16 16">
  <path d="M15.41.75c.152 0 .283.13.283.282v2.965h-.54V1.291H1.097v14.054h14.054V5.038h.54v10.565c0 .152-.13.282-.281.282H.84a.288.288 0 01-.282-.282V1.032C.558.88.688.75.84.75h14.57z"/>
  <path d="M15.288 5.027a.27.27 0 00-.206.097l-6.068 7.054-3.498-3.959a.27.27 0 00-.394-.01l-4.34 4.366a.27.27 0 10.384.381l4.136-4.162 3.513 3.975a.27.27 0 00.407-.004l6.27-7.289a.27.27 0 00-.204-.45zM11.62 2.173c.967 0 1.757.79 1.757 1.758 0 .967-.79 1.757-1.758 1.757-.967 0-1.757-.79-1.757-1.757 0-.968.79-1.758 1.757-1.758zm0 .541c-.676 0-1.217.542-1.217 1.217s.541 1.217 1.216 1.217c.675 0 1.217-.542 1.217-1.217s-.542-1.217-1.217-1.217z"/>
</svg>
